<svg id="Capa_1" enable-background="new 0 0 502.175 502.175" height="512" viewBox="0 0 502.175 502.175" width="512" xmlns="http://www.w3.org/2000/svg" fill="#000"><g><path d="m422.898 443.133h-343.631c-12.354.024-22.388-9.972-22.411-22.325-.009-4.61 1.407-9.11 4.053-12.884 44.081-62.38 67.697-136.912 67.586-213.295v-26.329c-.036-67.676 54.797-122.567 122.473-122.602h.129 1.055c68.02 1.593 122.158 57.507 121.555 125.544v23.387c-.12 76.38 23.486 150.912 67.557 213.295 7.092 10.115 4.641 24.064-5.474 31.156-3.775 2.646-8.275 4.062-12.884 4.053zm-171.801-383.087c-59.752-.036-108.219 48.374-108.255 108.125v.129 26.328c.126 79.337-24.396 156.755-70.175 221.552-1.733 2.421-1.945 5.615-.545 8.243 1.366 2.701 4.147 4.392 7.174 4.362h343.631c3.027.031 5.808-1.66 7.174-4.362 1.399-2.628 1.188-5.822-.545-8.243-45.79-64.794-70.321-142.212-70.204-221.552v-23.351c.623-60.171-47.181-109.693-107.336-111.196z"/><path d="m251.097 502.175c-36.552-.044-66.172-29.664-66.215-66.215 0-3.962 3.212-7.174 7.174-7.174s7.174 3.212 7.174 7.174c0 28.648 23.223 51.871 51.871 51.871s51.871-23.223 51.871-51.871c0-3.962 3.212-7.174 7.174-7.174s7.174 3.212 7.174 7.174c-.044 36.554-29.668 66.175-66.223 66.215z"/><path d="m277.755 63.131c-3.962 0-7.174-3.212-7.174-7.174v-22.132c-.016-10.753-8.731-19.465-19.484-19.477-10.729.07-19.41 8.748-19.484 19.477v22.132c0 3.962-3.212 7.174-7.174 7.174s-7.174-3.212-7.174-7.174v-22.132c.075-18.653 15.179-33.754 33.832-33.825 18.674.02 33.809 15.151 33.832 33.825v22.132c0 3.962-3.212 7.174-7.174 7.174z"/><path d="m419.11 393.992h-336.026c-3.962 0-7.174-3.212-7.174-7.174s3.212-7.174 7.174-7.174h336.026c3.962 0 7.174 3.212 7.174 7.174s-3.212 7.174-7.174 7.174z"/></g></svg>
