<?xml version="1.0" ?><!DOCTYPE svg  PUBLIC '-//W3C//DTD SVG 1.1//EN'  'http://www.w3.org/Graphics/SVG/1.1/DTD/svg11.dtd'><svg enable-background="new 0 0 91 91" height="91px" id="Layer_1" version="1.1" viewBox="0 0 91 91" width="91px" xml:space="preserve" xmlns="http://www.w3.org/2000/svg" xmlns:xlink="http://www.w3.org/1999/xlink" fill="#000"><g><path d="M44.59,73.868c7.385,0,14.328-2.875,19.55-8.098c10.778-10.779,10.778-28.316,0-39.096   c-5.222-5.221-12.164-8.098-19.548-8.096c-7.385,0-14.328,2.875-19.549,8.096c-10.779,10.779-10.779,28.318,0,39.096   C30.264,70.993,37.206,73.868,44.59,73.868z M27.447,29.079c4.579-4.58,10.668-7.1,17.145-7.1c6.476,0,12.564,2.52,17.145,7.1   c9.451,9.453,9.451,24.836,0,34.289c-4.581,4.578-10.67,7.1-17.146,7.1c-6.476,0-12.563-2.521-17.143-7.1   C17.994,53.915,17.994,38.532,27.447,29.079z"/><path d="M32.57,59.944c0.209,0,0.42-0.039,0.623-0.117l17.252-6.791c0.021-0.008,0.041-0.025,0.063-0.035   c0.061-0.025,0.117-0.061,0.176-0.094c0.063-0.039,0.126-0.076,0.184-0.121c0.049-0.039,0.092-0.084,0.137-0.129   c0.057-0.053,0.11-0.105,0.157-0.168c0.036-0.047,0.066-0.1,0.099-0.15c0.042-0.068,0.082-0.137,0.115-0.211   c0.008-0.018,0.021-0.033,0.027-0.051l6.791-17.252c0.247-0.629,0.098-1.346-0.381-1.824s-1.197-0.627-1.824-0.379l-17.249,6.791   c-0.022,0.008-0.04,0.025-0.063,0.035c-0.062,0.025-0.116,0.059-0.175,0.094c-0.064,0.039-0.128,0.076-0.186,0.121   c-0.049,0.039-0.091,0.084-0.135,0.125c-0.057,0.057-0.111,0.109-0.16,0.172c-0.035,0.047-0.064,0.098-0.096,0.148   c-0.043,0.068-0.084,0.139-0.116,0.213c-0.009,0.018-0.021,0.033-0.028,0.051l-6.793,17.25c-0.248,0.629-0.1,1.346,0.38,1.824   C31.693,59.771,32.127,59.944,32.57,59.944z M53.598,37.216l-4.408,11.201l-6.791-6.789L53.598,37.216z M39.995,44.032l6.79,6.789   l-11.201,4.41L39.995,44.032z"/></g></svg>
