<svg version="1.0" xmlns="http://www.w3.org/2000/svg" width="341.333" height="341.333" viewBox="0 0 256 256" fill="#000"><path d="M59 21.9c-7.2 2.3-11.9 6.3-14.5 12.3C43.2 37.5 43 46.9 43 107c0 66 .1 69.2 1.9 72.8 1.1 2 3.2 4.9 4.8 6.4 6.3 6.1 1.9 5.8 98.9 5.8 67.3 0 89.7-.3 92.8-1.2 5.3-1.6 11.8-8.1 13.4-13.4.9-3.1 1.2-21.1 1.2-71.7V38.2l-2.8-5.3c-2-3.9-4.1-6.2-7.7-8.4l-4.8-3-89.6-.2c-49.3-.1-90.7.2-92.1.6zm181.1 11.8c1.5.9 3.3 2.8 3.9 4.2.7 1.7.9 19 .8 52l-.3 49.3-23.3-27.1c-12.8-15-24.8-28.1-26.5-29.1-4.9-3.1-12.5-2.7-17 .7-2 1.6-12.9 14-24.3 27.7l-20.6 24.8-8.7-8.5c-4.7-4.7-9.6-9-10.8-9.6-2.8-1.4-10.8-1.4-13.6 0-1.2.6-12.2 11.1-24.4 23.2L53 163.5v-60.6c0-42.5.3-61.6 1.1-63.8.7-1.8 2.6-4.1 4.3-5.2 3-1.8 6.4-1.9 90.9-1.9 80.7 0 88.1.1 90.8 1.7zm-51.6 57.9c.9.4 14 15.1 29.1 32.7l27.4 31.9v9.5c0 9.1-.1 9.6-2.9 12.4l-2.9 2.9H60.1l-2.6-2.3-2.6-2.2 24.9-24.8c15.6-15.5 25.5-24.7 26.8-24.7 1.1 0 6.3 4.4 12.9 11 9.7 9.7 11.4 11 14 10.8 2.6-.3 6-3.9 24.3-25.8 29.8-35.7 27-32.8 30.7-31.4z"/><path d="M91 53.9C80.5 57.3 75 64.5 75 75c0 19.2 24 28.2 36.7 13.7 8.8-10.1 6.2-26.1-5.4-32.5-4.5-2.5-11.5-3.5-15.3-2.3zm10.1 11.7c9.3 4.8 5.5 19.4-5 19.4-10.4 0-14.6-13.7-5.7-19.1 3.8-2.3 6.7-2.4 10.7-.3zM22.6 106.2c-.8 1.3-6.2 20.3-12.1 42.3C2.3 179.2-.1 189.4.3 192.7c.6 6 5 12.8 10 15.7 3.9 2.2 165 46.1 173.7 47.3 6.2.9 12.1-1.4 17-6.6 4.4-4.5 4.7-5.2 9.3-22.1 5-18.6 5.4-20.9 3.5-22.8-1.6-1.6-6.3-1.5-7.6.1-.6.7-3.2 8.9-5.7 18.3-6.4 24-7.7 24.9-26.5 19.8-5.2-1.4-41.4-11-80.5-21.5-39-10.4-72.9-19.6-75.3-20.5-4.6-1.7-7.2-5.3-7.2-10 0-1.5 4.8-20.4 10.6-42.2 8.8-32.7 10.4-39.9 9.5-41.8-1.4-3.2-6.5-3.3-8.5-.2z"/></svg>
